<svg width="185" height="100" viewBox="0 0 185 100" fill="none" xmlns="http://www.w3.org/2000/svg">
<g clip-path="url(#clip0_5_2)">
<path fill-rule="evenodd" clip-rule="evenodd" d="M1.0202 27.9848H10.7517V47.5002H30.813V27.9848H40.5467V75.9191H30.813V55.574H10.7517V75.9191H1.0202V27.9848Z" fill="#2E548A"/>
<path fill-rule="evenodd" clip-rule="evenodd" d="M49.2137 27.9848H55.937H79.5878V35.9203H55.937V47.4619H77.182V55.3974H55.9242L55.8689 61.3182C55.8327 65.1923 58.9814 68.3623 62.7838 68.3623H79.624L79.7134 76.2276H60.0672C52.4434 76.2276 46.2034 69.8728 46.2034 62.1054V54.5166V51.6913V27.987H49.2116L49.2137 27.9848Z" fill="#2E548A"/>
<path fill-rule="evenodd" clip-rule="evenodd" d="M87.8801 27.9848H94.6034V35.9203V47.4619L94.5906 55.3974L94.5353 61.3182C94.4991 65.1902 97.6478 68.3623 101.45 68.3623H115.348L115.438 76.2276H98.7357C91.1119 76.2276 84.8719 69.8728 84.8719 62.1054V54.5166V51.6913V27.987H87.8801V27.9848Z" fill="#2E548A"/>
<path fill-rule="evenodd" clip-rule="evenodd" d="M120.504 47.5002V27.9848H130.238V75.9191H120.504V55.574V47.5002Z" fill="#2E548A"/>
<path fill-rule="evenodd" clip-rule="evenodd" d="M133.925 22.2173L157.604 0L182.673 22.1194H170.478L158.015 11.0586L146.133 22.2173H133.925Z" fill="#ED3237"/>
<path fill-rule="evenodd" clip-rule="evenodd" d="M19.0675 99.7298V84.914H30.9131V87.4181H22.3078V90.7072H30.3085V93.2112H22.3078V97.2258H31.2261V99.7298H19.0675ZM35.8289 99.7298V85.0374H39.0692V97.2258H47.0933V99.7298H35.8289ZM51.1575 99.7298V84.914H63.0031V87.4181H54.3978V90.7072H62.3984V93.2112H54.3978V97.2258H63.316V99.7298H51.1575ZM71.9235 99.7298L66.1987 84.914H69.7008L73.765 95.8812L77.6653 84.914H81.1078L75.415 99.7298H71.9256H71.9235ZM97.2603 99.7298H93.771L92.3893 96.3577H85.9704L84.6398 99.7298H81.2122L87.4266 84.914H90.85L97.2603 99.7298ZM91.3375 93.8537L89.1128 88.3712L86.9519 93.8537H91.3354H91.3375ZM102.691 99.7298V87.4181H97.9523V84.914H110.647V87.4181H105.932V99.7298H102.691ZM113.438 92.4113C113.438 90.9008 113.683 89.6307 114.173 88.6031C114.535 87.8478 115.033 87.1692 115.663 86.5692C116.293 85.9693 116.981 85.5246 117.73 85.231C118.729 84.8417 119.881 84.646 121.184 84.646C123.545 84.646 125.431 85.3246 126.849 86.6798C128.265 88.0393 128.971 89.9242 128.971 92.3432C128.971 94.7409 128.267 96.6173 126.864 97.9682C125.459 99.3234 123.579 100 121.228 100C118.848 100 116.951 99.3277 115.548 97.9789C114.143 96.6343 113.441 94.7792 113.441 92.4134L113.438 92.4113ZM116.768 92.3113C116.768 93.9899 117.19 95.2642 118.026 96.1322C118.865 96.9981 119.93 97.4321 121.218 97.4321C122.51 97.4321 123.568 97.0002 124.398 96.1429C125.227 95.2812 125.64 93.9899 125.64 92.2687C125.64 90.5689 125.237 89.2988 124.428 88.4648C123.623 87.6266 122.555 87.2096 121.218 87.2096C119.885 87.2096 118.808 87.633 117.992 88.4776C117.177 89.3264 116.766 90.6029 116.766 92.3092L116.768 92.3113ZM133.259 99.7298V84.914H140.065C141.775 84.914 143.018 85.0481 143.793 85.314C144.572 85.5799 145.19 86.0522 145.656 86.7309C146.122 87.4138 146.357 88.1904 146.357 89.0648C146.357 90.1796 146.007 91.0965 145.303 91.8198C144.598 92.5432 143.548 92.9985 142.148 93.1899C142.844 93.5665 143.419 93.9792 143.868 94.4324C144.323 94.8834 144.932 95.6876 145.701 96.8386L147.653 99.7277H143.791L141.475 96.4939C140.645 95.3451 140.074 94.6217 139.765 94.3218C139.461 94.026 139.135 93.8175 138.792 93.709C138.445 93.5984 137.902 93.5431 137.157 93.5431H136.502V99.7298H133.261H133.259ZM136.499 91.1837H138.89C140.44 91.1837 141.405 91.122 141.792 91.0008C142.175 90.8795 142.482 90.6689 142.697 90.3732C142.916 90.0753 143.025 89.703 143.025 89.2583C143.025 88.7584 142.88 88.3584 142.593 88.0478C142.305 87.7415 141.901 87.5479 141.379 87.4691C141.115 87.4351 140.327 87.4181 139.02 87.4181H136.499V91.1837ZM150.316 94.9302L153.467 94.6409C153.657 95.6174 154.038 96.3301 154.615 96.7896C155.192 97.2492 155.971 97.4747 156.95 97.4747C157.987 97.4747 158.768 97.2704 159.294 96.8641C159.82 96.4577 160.084 95.9812 160.084 95.4365C160.084 95.0855 159.973 94.7877 159.752 94.5388C159.533 94.2941 159.145 94.0813 158.594 93.9005C158.217 93.7771 157.361 93.5622 156.02 93.2516C154.295 92.8517 153.084 92.3623 152.388 91.7794C151.409 90.9625 150.921 89.9647 150.921 88.7882C150.921 88.0329 151.151 87.3223 151.611 86.6628C152.073 86.0054 152.737 85.5055 153.604 85.1587C154.472 84.814 155.515 84.6417 156.744 84.6417C158.745 84.6417 160.252 85.0523 161.261 85.8757C162.275 86.699 162.803 87.7968 162.856 89.1733L159.616 89.2775C159.477 88.5116 159.184 87.9627 158.732 87.6287C158.281 87.2947 157.604 87.1245 156.701 87.1245C155.769 87.1245 155.041 87.3032 154.515 87.6627C154.176 87.8925 154.004 88.201 154.004 88.5882C154.004 88.9392 154.163 89.2392 154.485 89.4881C154.892 89.8094 155.877 90.1391 157.446 90.4838C159.015 90.8263 160.174 91.1837 160.923 91.5496C161.674 91.9177 162.264 92.4177 162.688 93.0559C163.112 93.6941 163.324 94.4792 163.324 95.4153C163.324 96.2641 163.071 97.0598 162.56 97.8023C162.049 98.5448 161.332 99.0958 160.399 99.4554C159.467 99.817 158.306 99.9979 156.916 99.9979C154.894 99.9979 153.34 99.566 152.256 98.7001C151.172 97.8385 150.527 96.579 150.316 94.9281V94.9302Z" fill="#96989A"/>
<path fill-rule="evenodd" clip-rule="evenodd" d="M0.000427246 91.0476H14.5072V92.9708H0.000427246V91.0476Z" fill="#373435"/>
<path fill-rule="evenodd" clip-rule="evenodd" d="M170.595 28.4125H182.728L170.371 45.0026L170.293 44.9919L166.286 50.4872L164.37 53.0593L158.302 61.2033L147.227 76.0723H135.094L149.25 57.0675L170.595 28.4125ZM166.209 55.5293L181.51 76.0723H169.377L160.208 63.7605L166.209 55.5272V55.5293ZM150.482 50.7063L133.877 28.4125H146.01L156.482 42.473L150.48 50.7063H150.482Z" fill="#2E548A"/>
<path fill-rule="evenodd" clip-rule="evenodd" d="M167.791 91.0476H182.298V92.9708H167.791V91.0476Z" fill="#373435"/>
<path fill-rule="evenodd" clip-rule="evenodd" d="M174.314 55.6868V49.6064H172.043V48.798H177.501V49.6064H175.23V55.6868H174.314ZM178.425 55.6868V48.798H179.792L181.423 53.6742C181.574 54.1273 181.683 54.4677 181.751 54.6932C181.829 54.4422 181.953 54.0741 182.119 53.5891L183.777 48.798H185V55.6868H184.122V49.9234L182.111 55.6868H181.289L179.3 49.817V55.6868H178.423H178.425Z" fill="#373435"/>
</g>
<defs>
<clipPath id="clip0_5_2">
<rect width="185" height="100" fill="white"/>
</clipPath>
</defs>
</svg>
